<?xml version="1.0" standalone="no"?>
<!DOCTYPE svg PUBLIC "-//W3C//DTD SVG 20010904//EN"
 "http://www.w3.org/TR/2001/REC-SVG-20010904/DTD/svg10.dtd">
<svg version="1.0" xmlns="http://www.w3.org/2000/svg"
 width="512.000000pt" height="512.000000pt" viewBox="0 0 512.000000 512.000000"
 preserveAspectRatio="xMidYMid meet">

<g transform="translate(0.000000,512.000000) scale(0.100000,-0.100000)"
fill="#FFF" stroke="none">
<path d="M3493 4855 c-199 -45 -375 -218 -427 -421 -20 -79 -20 -213 -1 -289
41 -157 144 -285 310 -384 117 -71 232 -186 318 -318 102 -157 196 -235 337
-283 79 -27 212 -36 295 -21 211 38 407 228 455 441 18 75 16 203 -4 278 -21
83 -111 262 -193 387 -89 134 -292 338 -422 423 -106 70 -244 140 -341 173
-82 28 -237 35 -327 14z m316 -138 c135 -49 298 -146 426 -255 186 -159 391
-475 431 -664 68 -324 -244 -619 -565 -533 -139 37 -208 93 -316 255 -92 140
-203 249 -346 342 -63 41 -130 93 -150 115 -81 90 -119 190 -119 314 0 220
143 397 365 453 53 13 202 -1 274 -27z"/>
<path d="M3660 4510 c-129 -18 -229 -132 -230 -261 0 -116 42 -183 163 -257
111 -68 220 -171 298 -283 92 -132 106 -147 163 -177 42 -22 64 -26 121 -26
82 1 127 17 183 68 54 49 85 124 85 203 0 53 -7 77 -42 150 -112 232 -287 417
-496 520 -120 60 -173 74 -245 63z"/>
<path d="M1715 4141 c-11 -5 -29 -19 -40 -31 -18 -20 -20 -35 -18 -143 2 -132
0 -137 -53 -137 -18 0 -85 -13 -150 -30 -66 -16 -119 -30 -120 -30 -1 0 -22
45 -48 99 -47 101 -89 151 -127 151 -50 0 -99 -49 -99 -99 0 -10 23 -66 50
-124 28 -58 50 -111 50 -116 0 -6 -26 -28 -57 -50 -32 -22 -86 -66 -120 -99
l-63 -60 -87 70 c-97 78 -123 91 -159 82 -33 -8 -74 -60 -74 -93 0 -38 18 -60
120 -141 l89 -71 -34 -67 c-36 -73 -67 -152 -85 -220 -7 -26 -16 -42 -23 -39
-7 2 -69 13 -139 23 -145 20 -165 16 -193 -42 -20 -42 -11 -77 25 -107 23 -19
52 -27 158 -42 l130 -18 7 -96 c6 -85 28 -220 41 -254 3 -8 -40 -23 -128 -46
-154 -40 -188 -63 -188 -126 0 -40 32 -80 72 -90 14 -4 81 9 158 29 74 20 141
36 147 36 11 0 149 -258 141 -265 -2 -1 -47 -28 -101 -60 -108 -64 -137 -93
-137 -137 0 -40 15 -65 50 -83 49 -25 50 -25 251 94 l37 22 57 -83 c32 -46 80
-112 107 -146 27 -35 48 -65 46 -67 -2 -1 -48 -40 -103 -85 -55 -45 -105 -92
-112 -103 -34 -60 12 -137 81 -137 30 0 53 14 141 85 57 47 108 86 113 87 5 2
60 -46 121 -106 l112 -108 -91 -94 c-80 -82 -90 -97 -90 -129 0 -49 15 -74 53
-90 53 -22 78 -9 178 91 51 52 97 94 101 94 5 0 41 -24 81 -53 39 -29 107 -75
150 -101 75 -47 77 -49 63 -70 -151 -232 -152 -233 -132 -280 15 -37 50 -66
79 -66 44 0 77 33 152 150 43 66 81 120 85 120 4 0 45 -17 91 -38 46 -22 117
-52 157 -67 39 -15 72 -32 72 -37 0 -5 -14 -64 -30 -130 -19 -75 -29 -132 -25
-149 14 -64 99 -90 151 -46 22 19 33 47 59 148 l32 124 149 0 c82 1 174 5 205
9 l56 8 44 -122 c51 -143 79 -180 134 -180 46 0 95 44 95 85 0 22 -38 136 -85
257 -5 13 7 24 57 49 90 45 191 113 256 174 l57 52 114 -73 c73 -47 125 -74
143 -74 40 0 89 47 90 87 1 49 -25 80 -128 145 -52 33 -94 64 -94 69 0 5 12
28 27 52 41 64 81 158 104 244 12 43 23 81 25 84 2 3 58 -4 126 -16 86 -16
131 -20 154 -13 66 18 86 103 37 151 -23 21 -48 30 -148 47 -66 12 -127 23
-136 26 -13 3 -17 25 -22 107 -3 56 -15 136 -26 177 -11 41 -19 75 -18 76 1 0
57 20 125 44 133 47 172 76 172 130 0 40 -52 90 -93 90 -18 0 -88 -21 -156
-45 -68 -25 -125 -44 -126 -43 -56 93 -128 188 -180 239 l-67 67 84 63 c145
109 176 138 183 169 14 62 -54 127 -115 110 -20 -6 -174 -117 -305 -221 -16
-12 -300 172 -293 190 2 4 60 58 130 119 70 62 130 117 133 123 4 6 7 27 7 47
0 44 -46 92 -90 92 -35 0 -51 -12 -187 -130 -60 -52 -118 -102 -128 -109 -16
-12 -23 -7 -75 49 -31 35 -80 95 -109 133 l-52 70 120 125 c67 70 125 137 130
151 23 59 -23 121 -90 121 -32 0 -47 -11 -152 -116 l-115 -115 -39 58 c-21 32
-82 102 -136 156 l-99 98 55 109 c30 60 55 121 55 134 0 13 -12 38 -26 55 -20
24 -34 31 -63 31 -54 0 -74 -20 -132 -128 -29 -53 -53 -98 -54 -100 -1 -1 -37
11 -80 28 -42 17 -120 41 -173 52 -54 11 -102 22 -108 24 -8 2 -14 45 -19 121
-7 133 -16 160 -62 180 -36 15 -40 15 -68 4z m267 -455 c152 -39 292 -115 411
-225 72 -67 124 -134 210 -271 211 -337 388 -505 782 -745 109 -67 257 -215
319 -320 105 -180 141 -329 133 -540 -11 -249 -89 -438 -259 -620 -158 -169
-359 -268 -602 -296 -211 -25 -404 21 -701 166 -471 230 -876 595 -1166 1050
-107 168 -237 428 -283 566 -118 353 -29 725 236 988 146 145 332 240 533 271
99 15 277 4 387 -24z"/>
<path d="M1571 3314 c-184 -49 -338 -204 -387 -389 -18 -65 -18 -206 0 -272
35 -133 197 -441 335 -637 270 -387 650 -696 1073 -876 163 -69 218 -83 323
-84 117 -1 201 25 306 96 200 132 287 398 205 623 -55 151 -123 225 -313 339
-183 110 -323 217 -470 359 -155 151 -255 273 -399 492 -151 230 -214 288
-366 339 -89 30 -217 34 -307 10z m324 -461 c75 -38 119 -109 119 -193 0 -121
-92 -213 -214 -213 -122 0 -214 92 -214 213 0 160 167 264 309 193z m668 -904
c12 -6 32 -20 43 -31 22 -19 22 -19 63 1 54 28 157 29 209 2 84 -43 132 -122
132 -216 0 -184 -189 -297 -351 -209 -50 28 -98 85 -115 136 -4 13 -12 17 -24
13 -28 -9 -101 13 -128 38 -55 51 -70 139 -35 200 37 63 145 97 206 66z"/>
</g>
</svg>
