<?xml version="1.0" standalone="no"?>
<!DOCTYPE svg PUBLIC "-//W3C//DTD SVG 20010904//EN"
 "http://www.w3.org/TR/2001/REC-SVG-20010904/DTD/svg10.dtd">
<svg version="1.0" xmlns="http://www.w3.org/2000/svg"
 width="256.000000pt" height="256.000000pt" viewBox="0 0 256.000000 256.000000"
 preserveAspectRatio="xMidYMid meet">

<g transform="translate(0.000000,256.000000) scale(0.100000,-0.100000)"
fill="#FFF
" stroke="none">
<path d="M551 2090 c-61 -9 -71 -28 -71 -127 l0 -83 -79 0 c-64 0 -83 -4 -105
-21 l-26 -20 0 -668 c0 -649 1 -668 19 -685 27 -24 50 -23 166 7 150 39 246
51 400 50 150 0 250 -16 360 -58 l61 -23 62 24 c211 79 504 79 797 0 95 -26
125 -23 144 13 8 13 11 232 11 674 0 772 13 700 -124 706 l-86 3 0 82 c0 110
-11 121 -117 131 -225 19 -480 -60 -622 -193 l-61 -57 -62 58 c-152 142 -442
224 -667 187z m286 -146 c140 -29 262 -97 334 -188 l39 -49 0 -488 0 -489 -48
35 c-118 84 -267 132 -439 142 l-113 6 0 523 0 524 75 0 c42 0 110 -7 152 -16z
m1111 -506 l-3 -523 -103 -7 c-174 -11 -330 -62 -444 -143 -26 -19 -50 -35
-53 -35 -3 0 -5 218 -5 484 l0 484 39 49 c107 136 276 210 489 212 l82 1 -2
-522z m-1468 -161 c0 -378 3 -467 14 -482 12 -17 29 -19 157 -21 158 -2 255
-21 348 -69 28 -14 51 -26 51 -28 0 -1 -93 -3 -208 -3 -179 -1 -222 -5 -320
-26 -62 -13 -115 -22 -117 -19 -3 2 -5 253 -5 558 l0 553 40 0 40 0 0 -463z
m1672 -93 c2 -306 2 -557 0 -558 -1 -2 -28 3 -60 10 -157 38 -408 54 -539 35
-29 -4 -53 -4 -53 -1 0 13 112 61 188 82 57 15 114 21 216 23 131 2 141 4 158
25 17 21 18 52 18 481 l0 459 35 0 35 0 2 -556z"/>
</g>
</svg>
